<?xml version="1.0" encoding="UTF-8"?>
<svg id="Layer_2" data-name="Layer 2" xmlns="http://www.w3.org/2000/svg" viewBox="0 0 612.14 515.84">
  <defs>
    <style>
      .cls-1 {
        fill: #2d88d6;
      }

      .cls-1, .cls-2, .cls-3, .cls-4 {
        stroke-width: 0px;
      }

      .cls-2 {
        fill: #1d1d1b;
      }

      .cls-3 {
        fill: #fff;
      }

      .cls-4 {
        fill: #ec1c24;
      }
    </style>
  </defs>
  <g id="katman_1" data-name="katman 1">
    <g>
      <path class="cls-2" d="m611.28,134.77c-.42-.96-1.09-1.8-1.62-2.71-2.2-3.82-4.65-7.52-6.51-11.49-2.19-4.69-5.02-8.55-9.76-10.94-1.59-.8-3.08-2.01-4.25-3.36-1.93-2.2-1.7-4.07.41-6.38.52.56,1,1.14,1.54,1.66,2.6,2.53,4.02,2.82,7.15.97,2.89-1.7,5.65-3.64,8.4-5.56,1.57-1.1,2.42-2.74,2.54-4.66.15-2.53-.27-4.99-1.52-7.22-1.31-2.34-3.27-3.81-6.03-3.78-2.1.02-4.21.27-6.31.42-1.39.1-2.78.19-4.24.29-.04-.83-.21-1.35-.06-1.76.7-1.96,1.32-3.98,2.27-5.82,2.05-3.97,1.37-6.95-2.6-10.32-2.95-2.51-5.18-2.47-8.7.38-2.07,1.67-3.98,3.54-6.04,5.39-.62-.56-1.25-1.01-1.74-1.57-6-6.93-13.61-10.56-22.64-11.96-10.69-1.65-20.91-5.08-30.39-10.36-5.17-2.88-10.96-3.26-16.42-4.94-.53-.17-1.15-.07-1.72-.08-5.96-.19-11.64,1.27-17.21,3.1-8.68,2.85-17.3,5.87-26.69,5.11-1.23-.1-2.59.6-3.78,1.16-.93.44-1.74,1.2-2.54,1.88-4.68,3.95-9.93,6.28-16.17,6.7-3.99.27-7.92,1.42-11.88,2.15-1.29.24-2.63.62-3.9.49-7.12-.72-14.19-.62-21.23.73-8.39,1.61-15.97,4.79-21.97,11.14-.51.54-1.18,1.14-1.86,1.27-3.94.76-7.89,1.51-12.2,1.06,0-1.05.03-1.99,0-2.93-.44-10.58-1.46-21.08-4.58-31.27-2.7-8.81-6.49-17.05-12.9-23.87-7.41-7.88-16.67-12.54-26.91-15.42-4.79-1.35-9.77-2.73-14.7-2.08-5.76.76-11.55,2.08-17.04,3.98-15.28,5.27-26.08,15.4-31.97,30.66-4.2,10.88-6,22.2-6.64,33.76-.13,2.38-.02,4.77-.02,7.67-4.39-.53-8.37-.94-12.32-1.53-.75-.11-1.51-.8-2.09-1.4-4.43-4.65-9.86-7.57-15.95-9.41-9.06-2.74-18.29-3.32-27.66-2.35-.84.09-1.72.03-2.55-.13-4.51-.86-8.98-2.13-13.52-2.57-5.59-.54-10.56-2.33-14.58-6.1-3.15-2.95-6.55-4.01-10.74-3.67-2.26.19-4.65.07-6.85-.48-5.48-1.37-10.89-3.05-16.33-4.62-5.54-1.6-11.07-3.45-16.93-2.96-2.54.21-5.01,1.42-7.54,1.54-4.1.21-7.61,1.86-11.1,3.66-9.89,5.08-20.3,8.56-31.28,10.35-7.09,1.16-13.49,3.71-18.62,8.94-1.47,1.49-3.05,2.87-4.55,4.27-2.36-2.05-4.51-4.11-6.87-5.89-1.09-.81-2.59-1.5-3.9-1.51-5.11-.01-9.17,6.9-6.86,11.45.48.94,1.12,1.8,1.56,2.76.76,1.64,1.42,3.32.92,5.45-1.48-.11-2.8-.21-4.11-.32-1.81-.15-3.63-.43-5.44-.45-3.95-.05-6.52,1.84-7.81,5.56-1.63,4.7-1.06,8,2.2,10.41,2.69,2,5.58,3.75,8.47,5.45,2.65,1.55,4.17,1.26,6.47-.88.65-.61,1.25-1.27,1.89-1.91,2.71,2.96,1.51,5.88-.94,7.7-1,.74-2.06,1.41-3.15,2.01-2.8,1.56-5.43,3.31-7.04,6.2-.94,1.67-1.91,3.34-2.66,5.11-1.78,4.18-3.8,8.18-6.71,11.71-.78.95-1.41,2.1-1.82,3.25-1.44,4.11,1.08,7.85,5.42,8.23,3.13.28,5.71-.95,7.69-3.2,1.83-2.08,3.36-4.42,5.01-6.67,2.38-3.25,4.52-6.71,7.16-9.73,4.14-4.74,9.34-7.23,15.67-6.06.74,1.83,1.26,3.61,2.15,5.18,1.27,2.25,2.77,4.39,4.26,6.51,1.86,2.65,3.01,5.47,3.27,8.77.18,2.35.72,4.79,1.68,6.93,1.53,3.41,4.76,4.38,8.23,2.94,2.89-1.2,4.54-3.53,5.47-6.35,1.37-4.16,1.39-8.41-.55-12.37-1.59-3.26-3.6-6.33-5.55-9.41-1.71-2.71-2.14-5.49-.11-8.05,3.26-4.11,5.75-8.56,7.46-13.53,1.57-4.57,5.46-6.27,9.84-6.03,8.56.47,16.67,2.07,24.27,6.95,9.38,6.03,19.96,9.37,31.58,9.17.82,1.35,1.7,2.83,2.61,4.29,9.78,15.6,23.26,26.35,41.08,31.48.68.2,1.28.81,1.8,1.34,2.54,2.62,5,5.32,7.58,7.89.89.88,1.22,1.75,1.28,3,.13,2.67.33,5.37.84,7.99,2.01,10.2,6.46,19.46,11.43,28.49,6.28,11.4,13.86,21.94,22.04,32.02,5.8,7.16,8.61,15.05,8.02,24.26-.45,7.1-.67,14.21-.93,21.32-.1,2.86-.02,5.73-.02,8.6-.27.11-.54.22-.81.33-.86-.56-1.74-1.11-2.6-1.69-12.85-8.76-26.6-15.74-41.24-20.95-16.5-5.87-33.53-9.04-51-9.72-16.51-.64-33.06-.46-49.47-2.84-2.34-.34-4.69.25-6.59,1.65-3.01,2.21-6.1,4.41-8.7,7.05-11.47,11.65-14.73,25.54-10.25,41.14,2.74,9.55,9,16.64,17.12,22.12,9.05,6.1,17.42,12.96,24.54,21.28,3.31,3.87,6.73,7.65,10.15,11.42,6.16,6.78,12.78,13.03,20.39,18.19,9.78,6.63,20.66,11.02,31.49,15.49,16.87,6.96,34.08,13.09,50.47,21.18,7.77,3.84,15.34,7.98,21.89,13.76,6.93,6.11,11.89,13.25,12.82,22.77.5,5.05,1.17,10.11,2.13,15.1,2.74,14.22,7.92,27.52,16.26,39.41,6.94,9.88,15.09,18.12,27.99,19.95,3.79.54,7.12.29,10.15-1.72,1.99-1.33,3.43-1.14,5.45-.14,5.21,2.58,10.67,2.98,16.2.89,5.22-1.97,9.7-5.09,13.51-9.12,15.61-16.49,22.65-36.75,25.12-58.8.95-8.49,2.18-16.65,8.28-23.08,2.89-3.05,6.03-5.96,9.43-8.43,10.49-7.61,22.19-13.03,34.08-18,14.09-5.88,28.31-11.42,42.42-17.26,12.22-5.06,23.95-11.09,33.57-20.37,6.28-6.06,12.26-12.47,18.06-19,7.38-8.31,15.29-15.94,24.59-22.09,2.88-1.9,5.57-4.12,8.2-6.36,12.26-10.46,15.84-28.95,10.47-43.54-3.11-8.44-9-14.62-15.88-20.09-3.53-2.8-7.32-3.95-11.81-3.21-10.36,1.72-20.83,2.12-31.3,2.26-12.41.16-24.81.58-37.07,2.58-23.52,3.84-45.31,12.3-65.4,25.13-2.72,1.74-5.42,3.49-8.36,5.39-.44-11.08-.83-21.82-1.3-32.55-.33-7.52,1.99-14.12,6.46-20.13,5.56-7.48,11.05-15.02,16.34-22.7,7.66-11.13,14.09-22.91,17.78-36.01,1.14-4.06,2.28-8.13,1.74-12.46-.09-.67.48-1.58,1.01-2.14,1.9-2.04,4.02-3.87,5.84-5.97,1.85-2.14,3.91-3.48,6.7-4.44,15.46-5.36,27.93-14.75,36.88-28.58,1.4-2.16,2.75-4.34,4.06-6.42,1.57,0,2.92.12,4.25-.02,10.51-1.07,20.18-4.51,29.04-10.26.88-.57,1.77-1.13,2.7-1.6,5.98-2.98,12.48-3.68,19.01-4.13,5.16-.35,9.08,1.83,10.8,6.42,1.77,4.73,4,9.11,7.17,13.06,1.78,2.22,1.89,4.78.42,7.26-1.23,2.06-2.56,4.06-3.88,6.07-2.49,3.81-3.84,7.97-3.54,12.54.28,4.25,1.85,7.85,5.8,10,3.78,2.05,7.68.7,9.16-3.33.62-1.68.93-3.55,1-5.35.15-3.39,1.3-6.32,3.19-9.09,2.63-3.86,5.74-7.49,6.62-12.28,4.44-.68,8.55-.02,11.85,2.76,2.91,2.45,5.5,5.34,7.89,8.31,2.34,2.91,4.19,6.21,6.39,9.24,1.71,2.35,3.74,4.45,6.71,5.18,2.79.69,5.42.28,7.35-2.04,1.81-2.18,1.46-4.67.42-7.07Zm-272.52,258.46s-.01,0-.02,0c-3.82,5.29-6.02,11.33-7.98,17.45-3.45,10.79-8.83,20.6-14.89,30.1-3.19,4.99-6.2,10.1-9.3,15.15-7.26-11.32-15.88-22.1-21.18-34.89-1.69-4.07-3.21-8.21-4.79-12.33-1.06-2.78-1.92-5.64-3.16-8.33-1.19-2.6-2.74-5.03-4.31-7.85,4.18-.13,7.78-1.59,11.28-3.45,7.89-4.2,16.45-4.97,25.17-4.56,6.88.33,13.4,1.94,19.55,5.24,2.88,1.55,6.2,2.29,9.59,3.48,0,0,0,0,0,0,0,0,0-.02,0-.02-.04-.29.05-.11,0,0,0,.01,0,.02,0,.04Z"/>
      <path class="cls-1" d="m273.55,324.37c.27,0,.59-.11.82-.01,9.22,4.02,18.43,8.05,27.63,12.08,1.93.85,3.86,1.7,5.78,2.57,1.53.69,2.84.63,4.2-.55,4.68-4.05,10.13-6.88,15.61-9.67,3.76-1.91,7.47-3.91,11.22-5.85.38-.2.86-.21,1.29-.3l-.08-.05c-1.28,1.9-2.61,3.77-3.84,5.69-2.43,3.8-4.82,7.63-7.2,11.47-.36.58-.52,1.27-.78,1.91.17.1.34.2.52.3.55-.72,1.13-1.43,1.65-2.17,8.79-12.42,18.23-24.31,29.09-34.98,25.66-25.19,55.98-41.81,91.24-49.28,10.37-2.2,20.85-3.31,31.43-3.62,9.61-.28,19.22-.51,28.81-.98,4.21-.2,8.42-.75,12.57-1.49,4.88-.87,9.03,0,12.77,3.44,4.91,4.52,9.62,9.11,12.28,15.42,6.45,15.32,1.87,32.83-11.31,42.93-1.9,1.46-3.89,2.83-5.9,4.13-11.21,7.24-20.02,17.01-28.58,27.05-7.12,8.35-14.46,16.48-23.51,22.84-8.15,5.73-17.34,9.44-26.23,13.77-4.31,2.1-7.33,1.61-11.06-1.25-9.81-7.51-17.9-16.25-22.49-27.9-2.29-5.82-3.33-11.81-2.78-18.06.16-1.79.73-3.28,1.92-4.68,10.3-12.17,22.56-21.94,36.39-29.79,2.75-1.56,5.51-3.16,8.43-4.35,5.44-2.22,9.19.11,9.38,6.03.11,3.51-.59,7.05-1.03,10.56-.45,3.6-1.03,7.19-1.56,10.78.22.05.43.09.65.14.68-2.7,1.51-5.37,1.99-8.1.85-4.8,1.94-9.63,2.12-14.47.26-6.88-5.17-10.58-11.68-8.23-7.45,2.7-14.13,6.9-20.69,11.29-14.9,9.99-26.7,23.05-37.26,37.37-7.12,9.67-14.02,19.53-22.33,28.26-2.38,2.5-5,4.77-7.48,7.19-3.09,3.02-6.21,6.02-9.19,9.15-1.55,1.62-3.3,2.58-5.52,2.75-3.83.29-7.66.5-11.47.95-1.49.18-3.13.63-4.3,1.5-2.91,2.15-5.95,1.78-9.03.93-2.02-.56-4.08-1.24-5.88-2.28-8.99-5.18-18.77-5.79-28.77-5.18-2.3.14-4.57.56-6.86.81-3.98.43-7.65,1.76-11.13,3.71-3.45,1.94-7.02,3.68-11.1,3.57-1.29-.03-2.73-.26-3.82-.89-3.36-1.95-6.99-2.69-10.76-2.75-10.34-.16-9.32-.35-15.04-6.32-2.99-3.12-6.3-5.92-9.43-8.91-9.09-8.67-16.44-18.78-23.84-28.86-7.46-10.16-15.15-20.12-24.46-28.69-9.6-8.84-20.2-16.25-31.96-21.96-1.55-.75-3.19-1.37-4.84-1.82-5.97-1.65-10.91,1.84-11.25,8.02-.1,1.89.16,3.85.53,5.72,1.09,5.45,2.31,10.88,3.5,16.31.07.32.25.62.38.92.2-.05.41-.1.61-.15-.45-2.66-.97-5.31-1.32-7.98-.55-4.09-.99-8.19-1.44-12.29-.06-.57-.01-1.16.06-1.73.73-5.74,4.36-7.89,9.58-5.35,17.33,8.41,32.59,19.56,44.83,34.57.8.98,1.39,2.31,1.62,3.56,1.13,6.14-.16,12.04-2.25,17.78-4.58,12.57-13.25,21.83-23.88,29.6-3.08,2.25-5.58,2.51-9.07.9-10.31-4.75-20.64-9.38-29.8-16.24-8.15-6.1-14.79-13.69-21.39-21.33-7.04-8.15-14.07-16.32-22.84-22.72-3.34-2.43-6.78-4.73-10.17-7.08-15.3-10.63-19.03-31.27-11.22-45.95,3.42-6.44,8.57-11.28,14.37-15.5,2.56-1.86,5.53-1.63,8.35-1.17,11.91,1.95,23.91,2.18,35.92,2.26,26.27.19,51.53,5.09,75.48,16.09,21.45,9.86,40.39,23.25,56.99,40.04,9.71,9.82,18.04,20.71,25.99,31.94.54.77,1.12,1.5,1.98,2.1-.34-2.23-1.7-3.99-2.78-5.86-1.15-2-2.42-3.93-3.65-5.88-1.22-1.93-2.45-3.85-3.68-5.78l-.07.06Zm-82.42-165.83c.31,5.64,1.56,10.35,3.23,14.96,4.92,13.58,12.35,25.78,20.78,37.4,4.17,5.75,8.56,11.35,12.7,17.13,3.76,5.24,5.39,11.24,5.36,17.64-.03,6.05-.28,12.1-.55,18.15-.07,1.52.4,2.47,1.6,3.38,5.87,4.46,12.28,7.87,19.3,10.12,1.4.45,2.88.64,4.61,1.02-.34-1.2-.58-1.92-.75-2.66-1.52-6.73-3.41-13.4-4.47-20.2-1.96-12.61-4.06-25.19-7.36-37.51-2.8-10.47-6.04-20.82-9.31-31.15-5.03-15.91-13.9-29.2-27.31-39.37-6.74-5.11-13.37-10.37-19.85-15.8-13.12-10.97-22.05-24.72-26.7-41.19-3.11-11,.23-18.65,10.41-23.91,1.7-.88,3.51-1.56,5.29-2.29.92-.38,1.88-.68,3.34-1.19-1.77-.34-2.98-.69-4.21-.78-6.32-.42-12.66-.68-18.97-1.2-3.04-.25-6.05-.9-9.04-1.52-.89-.19-1.66-.9-2.95-1.63,6.19.2,11.69.38,17.2.56-1.86-1.89-3.8-3.24-5.63-4.72-1.97-1.6-4.1-2.22-6.67-2.04-2.76.19-5.64.3-8.31-.27-5.8-1.25-11.52-2.91-17.24-4.5-4.63-1.28-9.23-2.5-14.1-2.67-6.19-.21-10.22,2.42-12.47,8.15-2.46,6.27-4.51,12.63-5.75,19.27-2.01,10.77,2.89,21.42,12.53,26.45,2.55,1.33,5.17,2.55,7.81,3.71,5.66,2.51,11.69,3.46,18.05,4.24-.67-1.56-1.28-2.85-1.76-4.18-.5-1.39-.87-2.82-1.3-4.23l.75-.34c.85,1.44,1.78,2.84,2.53,4.33,7.81,15.5,19.36,27.34,34.72,35.43,2.15,1.13,4.45,2,6.68,2.99-2.72-5.27-5.81-10.07-7.33-15.64,1.11,1,1.93,2.16,2.71,3.35,9.16,13.87,20.24,25.87,34.25,34.96,4.67,3.03,9.52,5.78,14.28,8.69.49.3.87.76,1.3,1.15-5.41-.58-10.06-2.92-15.32-5.61.62,1.78.97,2.94,1.41,4.07,6.2,15.69,15.3,29.43,27.71,40.92,1.34,1.24,2.7,2.49,3.84,4.66-2.99-.88-4.78-2.45-6.51-4.05-14.37-13.18-25.19-28.65-30.57-47.61-.12-.43-.38-.92-.73-1.18-2.2-1.66-4.44-3.27-7.21-5.28m239.48-95.86c3.93,1.78,7.36,3.04,10.5,4.82,5.06,2.87,8.84,6.98,9.38,13.04.26,3,.09,6.2-.65,9.11-4,15.59-12.08,28.85-24.06,39.54-6.59,5.88-13.61,11.28-20.63,16.65-13.32,10.21-23.25,22.87-28.59,38.88-2.8,8.37-5.47,16.79-7.9,25.27-3.73,13.02-6.39,26.28-8.53,39.66-1.27,7.95-3.03,15.82-4.63,23.72-.32,1.56-.88,3.06-1.38,4.76.65,0,1.03.07,1.37-.01,8.44-2.08,15.99-5.93,22.83-11.27,1.01-.79,1.12-1.66,1.07-2.76-.2-3.94-.36-7.87-.54-11.81-.27-6.07-.45-12.2,2.16-17.85,1.59-3.46,3.66-6.74,5.84-9.87,6.1-8.75,12.64-17.2,18.5-26.1,6.03-9.17,10.92-18.98,13.95-29.62.91-3.2,1.74-6.41,1.58-10.18-1.08.8-1.86,1.46-2.72,1.99-3.09,1.92-4.9,4.46-6.15,8.09-4.87,14.16-12.43,26.81-23.02,37.52-2.97,3-6.13,5.82-9.29,8.62-.85.75-2.02,1.13-3.04,1.68-.17-.22-.34-.45-.51-.67,1.5-1.56,2.99-3.13,4.49-4.69,2.73-2.83,5.63-5.52,8.15-8.52,8.09-9.64,14.55-20.28,19-32.09.37-.98.64-2,1.11-3.51-5.26,2.63-9.84,5.06-15.17,5.54,10.2-6.32,20.53-12.37,29.39-20.55,8.89-8.21,16.18-17.74,23.16-27.59-1.66,5.51-4.54,10.36-7.53,15.25,1.08-.1,1.98-.35,2.83-.71,9.33-3.99,17.32-9.89,24.38-17.11,6.11-6.23,10.96-13.34,14.82-21.14.58-1.17,1.39-2.23,2.09-3.34.26.14.52.29.78.43-.99,2.72-1.98,5.44-3.07,8.41.73-.05,1.18-.06,1.64-.12,9.25-1.23,17.98-4.07,25.96-8.92,8.1-4.92,11.48-12.63,11.05-21.72-.45-9.31-3.74-17.99-7.82-26.32-1.16-2.37-3.01-4.08-5.74-4.3-2.75-.22-5.62-.61-8.28-.11-5.36,1.01-10.65,2.43-15.9,3.95-6.86,1.99-13.72,3.63-20.95,3.14-1.21-.08-2.65-.03-3.64.55-2.89,1.69-5.6,3.68-8.37,5.55.05.18.11.36.16.54,5.55-.18,11.11-.37,17.04-.57-2.06,1.69-4.16,2.41-6.34,2.59-4.59.37-9.2.43-13.8.77-4.84.36-9.66.89-14.99,1.39"/>
      <path class="cls-3" d="m346.34,79.96c.05,9.02-.38,17.41-4.63,25.08-3.29,5.94-8.29,9.48-15.1,10.11-2.73.25-5.41-.32-7.13-2.76-1.67-2.38-1.28-4.88.02-7.33,2.73-5.16,6.81-9.26,10.78-13.4,4.13-4.31,8.99-7.76,14.12-10.81.47-.28,1-.46,1.95-.88m-80.22-.07c0,3.49-.18,6.54.04,9.55.46,6.39,1.84,12.58,5.76,17.83,3.47,4.66,7.89,7.84,14.03,7.82,5.26-.02,10.58-3.51,6.33-10.8-.19-.33-.36-.68-.6-.98-1.94-2.5-3.82-5.05-5.86-7.46-5.45-6.43-11.96-11.58-19.69-15.96"/>
      <path class="cls-4" d="m442.18,75.64c-12.58,14.11-19.86,29.98-22.12,48.46-1.48-1.09-2.78-2.04-4.08-2.99-7.29-5.29-15.11-9.48-24.07-11.14-1.78-.33-3.62-.36-5.44-.44-1.33-.06-1.9-.63-1.83-1.97.45-7.97,2.81-15.24,7.9-21.49.57-.7,1.49-1.2,2.34-1.59,12.62-5.8,25.9-8.89,39.77-9.35,2.28-.08,4.58.29,7.52.5m-214.72,33.7c.09-8.03-2.22-14.81-6.12-21.15-1.32-2.14-3.18-3.46-5.47-4.43-9.68-4.11-19.71-7.03-30.17-8.02-4.99-.47-10.05-.08-15.68-.08,12.49,14.07,19.83,29.98,22.1,48.48,10.71-8.25,21.59-14.69,35.34-14.8m189.32,15.69c-.25-.31-.39-.58-.61-.75-7.54-5.99-15.84-10.41-25.37-12.27-4.81-.94-9,.15-12.85,3.34-5.78,4.79-10.51,10.31-13.83,17.09-.92,1.88-.86,3.16.17,4.93,4.07,6.96,7.95,14.02,11.88,21.06.69,1.23,1.29,2.51,2.11,4.11,9.69-15.97,21.96-28.75,38.49-37.52m-183.07,37.25c5.25-9.43,10.28-18.48,15.32-27.54-3.2-7.57-8.18-13.87-14.57-19.22-4.29-3.59-8.93-4.41-14.21-3.29-9.03,1.92-16.81,6.35-24.08,11.83-.34.25-.56.66-.78.93,16.41,8.79,28.76,21.48,38.31,37.29m-1.1,9.41c7.8,14.83,11.71,30.96,16.17,47.36,4.02-2.05,8.03-1.84,12.05-1.47,4.15.38,7.82,1.96,10.86,5.15-.58-9.64-1.13-18.83-1.71-28.02-.05-.76-.19-1.55-.5-2.23-2.88-6.39-6.79-12-12.31-16.41-6.52-5.21-13.86-8.34-22.23-9.13-.78,1.6-1.49,3.04-2.32,4.75m107.32-127c1.92-7.54,2.73-15.04,2.99-22.63.07-1.92-.58-3.2-1.99-4.44-8.15-7.16-17.74-11.28-28.21-13.59-1.73-.38-3.49-.57-5.41-.87-.06,1.09-.12,1.74-.12,2.4-.06,6.15.06,12.3-.22,18.44-.14,3.07.89,5.39,2.91,7.46.67.68,1.35,1.39,2.12,1.95,5.85,4.24,12.09,7.81,18.88,10.3,2.78,1.02,5.71,1.63,9.05.99m-67.65.25c1.81-.09,3.55.04,5.18-.31,8.45-1.8,15.74-6.07,22.42-11.3,3.57-2.79,5.8-6.6,5.2-11.55-.2-1.6.13-3.26.14-4.89.02-4.59,0-9.18,0-14.02-3.43.77-6.75,1.33-9.95,2.27-8.93,2.61-17.28,6.36-24.25,12.74-1.24,1.13-1.78,2.29-1.73,4,.19,7.61.97,15.12,2.99,23.07m36.64,123.19c.4,3.36.7,6.5,1.21,9.62.12.72.79,1.54,1.44,1.96,4.02,2.61,5.65,6.37,5.65,11.01,0,.8.08,1.61.14,2.62,2.55-1.16,4.79-2.17,7.07-3.2-.02-5.21-2.91-9.46-4.27-14.46.67.29.88.33,1.01.45.35.33.69.67.98,1.05,2.9,3.79,3.97,8.27,4.55,12.86.12.91-.65,1.94-1.03,2.97,1.03-.23,2.18-.49,3.38-.76-.25-7.17-3.25-13.19-5.97-19.33,5.38,5.19,6.99,12.11,8.75,18.82,4.49.4,8.84.79,13.3,1.18.48-15.01-1.19-29.84-5.45-44.68-.53.47-.81.7-1.07.95-4.43,4.39-8.82,8.82-13.28,13.18-3.06,2.99-6.83,4.62-11,5.32-1.69.28-3.43.29-5.41.44m-30.54,87.57c4.78-3.03,9.71-4.48,15.16-4.27,5.4.21,10.29,1.87,15.12,4.81.26-7.8.53-15.25.69-22.7.02-.67-.67-1.43-1.18-2.03-1.53-1.82-3.13-3.58-4.69-5.37-.49-.57-.84-1.49-1.44-1.69-2.82-.92-5.7-1.65-8.93-2.56.92,3.01,3.2,4.81,3.05,7.68-1.79-1.88-3.24-3.98-4.8-5.99-.52-.67-1.35-1.58-2.04-1.59-4.94-.08-9.65.94-14.15,3.37,1.07,10.07,2.13,20.04,3.21,30.35m98.02-90.76c-4.19-9.03-8.77-17.56-13.9-25.8-1.36-2.18-1.61-2.28-3.83-1-4.28,2.45-8.22,5.33-11.35,9.2-1.37,1.69-2.81,3.32-4.27,5.04,3.65,12.91,4.41,26.27,4.53,40.38,2.2-3.25,3.97-5.95,5.81-8.59,5.84-8.41,12.55-15.81,23.02-19.24m-69.59-132.79c0,1.07.01,1.92,0,2.76-.18,9.78-.36,19.57-.56,29.35-.04,1.74.52,3.12,1.8,4.34,4.5,4.32,10.03,6.2,16.05,6.91.82.1,1.77-.06,2.52-.41.79-.37,1.71-.97,2.05-1.71,2.78-6.1,5.5-12.22,8.1-18.4,1.01-2.42,1.66-4.99,2.47-7.46-12.71-1.39-22.46-8.06-32.42-15.39m18.72,190.43c-4.62,1.13-9.45.52-11.55,5.69-.21.5-.84.82-1.09,1.32-.49.98-1.13,2-1.19,3.04-.28,5.08-.42,10.18-.55,15.27-.07,2.92-.01,5.85-.01,9.09,9.58-5.05,19.28-5.48,29.5-2.6.96-9.62,1.9-18.94,2.83-28.32-5.31-1.55-10.18-3.27-15.36-3.32-1.78,2.47-3,5.19-6.01,6.45,1.04-2,2.07-4,3.43-6.62m-27.1-46.79c-1.01,4.86-4.03,9.11-3.94,14.4,2.37,1.05,4.66,2.06,7,3.1.14-.52.25-.7.23-.87-.45-5.02.86-9.31,5.12-12.41.4-.29.82-.92.8-1.37-.21-3.6-.53-7.19-.82-10.9-1.34.07-2.28.11-3.22.18-7.01.56-13.1-1.51-18.12-6.45-3.83-3.78-7.54-7.68-11.31-11.51-.41-.42-.9-.76-1.65-1.39.31,14.3-.41,28.17.27,41.93h14.44c2.09-6.35,3.44-12.85,8.58-17.47-.11,1.16-.55,2.16-1.09,3.11-2.36,4.13-3.8,8.58-4.71,13.22-.35,1.78-.3,1.79,1.88,1.83,1.05-5.62,1.84-11.33,6.55-15.4m-25.38-128.13c.09.45.12.84.26,1.18,3.09,7.63,6.24,15.24,9.28,22.9,1.55,3.9,3.4,4.16,7.32,3.57,4.68-.7,8.56-3.24,12.41-5.77,1.39-.91,1.94-2.13,1.96-3.85.09-6.91.37-13.81.5-20.72.08-4.28.01-8.56.01-12.82-9.49,7.44-19.1,14.25-31.74,15.51m32.57,66.77c-.16-.05-.32-.1-.48-.15-5.01,15.34-10.02,30.68-15.01,45.98,7.21,5.9,26.06,5.81,31.87-.07-5.46-15.25-10.92-30.5-16.38-45.75m71.32,52c-2.71,1.48-5.4,2.73-7.85,4.35-5.69,3.77-10,8.93-13.82,14.49-2.23,3.24-4.19,6.66-6.5,9.84-.98,1.35-1.3,2.63-1.32,4.22-.05,3.74-.26,7.48-.43,11.21-.17,3.49-.38,6.97-.6,10.94.7-.67,1.02-.98,1.36-1.29,4.78-4.38,9.88-8.25,16.35-9.75,1.64-.38,2-1.52,2.38-2.83,3.4-11.89,6.97-23.71,12.37-34.89.26-.54.43-1.33.23-1.84-.54-1.4-1.3-2.72-2.16-4.45m-141.14-1.59c7.32.82,13.63,3.14,19.42,6.93,5.8,3.79,10.38,8.77,14.3,14.59.34-6.66.05-13.19.45-19.69.24-3.81-.57-7.14-2.1-10.45-3.69-7.98-9.28-14.18-17.33-18.47-5.51,8.69-10.36,17.55-14.74,27.09m51.56,329.31c.23-.12.45-.24.68-.37,0-.57-.02-1.14,0-1.71.18-4.59-.07-9.26.64-13.77,1.39-8.82,5.46-12.65,14.11-14.28.27-.05.53-.16.67-.21-3.47-2.27-7.09-4.42-10.48-6.9-6.09-4.45-11.07-10.05-15.92-15.78-1.66-1.96-2.93-2.09-4.74-.29-.79.79-1.41,1.82-1.89,2.84-1.79,3.83-2.14,7.94-2.03,12.1.03,1.22.24,2.53.74,3.61,3.6,7.73,7.15,15.5,11.03,23.09,2.07,4.05,4.77,7.78,7.19,11.65m37.1.48c.88-1.23,1.8-2.43,2.65-3.68,5.93-8.7,9.93-18.39,14.44-27.83,2.58-5.41,2.69-10.71,1.26-16.22-.47-1.82-1.27-3.65-2.32-5.21-1.84-2.74-3.54-2.71-5.67-.26-5.32,6.14-11.15,11.67-18.22,15.78-.38.23-.69.59-1.3,1.13,4.52,4.83,7.31,10.42,8.5,16.77,1.19,6.39,1,12.79.67,19.52m-17.66-28.66c-2.05.18-4.07.18-6.03.57-4.87.96-7.5,4.47-9.06,8.8-2.53,7.06-2.29,14.33-1.08,21.61.11.65.3,1.39.72,1.85,3.56,4.01,7.52,7.59,11.59,10.82.48-.16.67-.2.84-.29.25-.15.47-.33.7-.51,4.68-3.69,6.38-8.85,6.55-14.46.15-4.87-.14-9.79-.69-14.64-.51-4.55-1.25-9.13-3.55-13.74m-25.27-182.92c8.52-5.37,17.19-4.49,26.2-.42.27-8.2.52-16.02.79-23.95-2.44-1.09-4.69-2.17-6.98-3.11-3.61-1.49-7.41-2-11.29-1.65-3.78.34-7.34,1.36-10.29,3.94-.87.76-1.18,1.57-1.03,2.76.9,7.32,1.72,14.65,2.61,22.42m58.69-25.87c-.5-.36-.64-.51-.81-.57-9.42-3.01-18.53-2.38-27.32,2.28-1.27.67-1.45,1.64-1.47,2.84-.1,4.32-.25,8.65-.33,12.98-.05,2.76,0,5.54,0,8.55,8.72-3.99,17.73-5.34,27.3-2.71.89-7.91,1.76-15.62,2.64-23.37m-84.78-3.8c7.16-2.32,13.66-1.6,20.04,2.94-.28-2.42-.5-4.12-.68-5.82-.72-6.97-1.59-13.93-2.07-20.92-.2-2.97-1.35-4.87-3.7-6.55-5.42-3.86-11.29-4.49-17.5-2.79-2.11.58-2.21,1.12-1.72,3.46.85,4.04,1.74,8.07,2.5,12.12,1.08,5.74,2.05,11.49,3.13,17.56m24.69,52.88c-.43-5.96-.85-12.08-1.31-18.2-.11-1.41-.79-2.33-2.14-3.1-8.07-4.61-16.64-3.72-25.26-2.55-1.81.25-2.6,1.44-2.53,3.25.13,3.16.42,6.34.26,9.49-.08,1.54.34,2.45,1.4,3.43,1.97,1.82,3.88,3.72,5.71,5.69.94,1.02,1.83.91,3.07.72,3.29-.51,6.66-1.17,9.94-.95,3.56.24,7.06,1.4,10.87,2.23m43.86-147.77c.37-.16.68-.21.88-.39,7.63-6.97,14.33-14.7,19.6-23.64.72-1.22.65-2.07-.34-3.03-2.94-2.86-5.84-5.77-8.43-8.34-2.72.48-4.97.87-7.22,1.28-.56.1-1.16.16-1.64.43-4.28,2.39-7.87,5.52-10.08,9.97-.46.93-.75,2.3-.42,3.21,2.45,6.85,5.07,13.64,7.65,20.5m-47.97-36.07c-2.56,2.86-5.09,5.76-7.71,8.57-1.13,1.21-1.42,2.22-.48,3.78,5.09,8.47,11.29,15.99,18.71,22.5.41.36.89.64,1.39.99.27-.35.51-.54.59-.78,2.27-6.62,4.5-13.26,6.8-19.87.53-1.53.12-2.81-.67-4.09-2.22-3.59-5.19-6.41-8.91-8.4-.74-.39-1.59-.62-2.42-.79-2.15-.43-4.31-.79-6.47-1.17l-.84-.75Zm34.65,213.75c.21.09.41.18.62.27,7.2-6.55,15.86-10.65,24.62-14.46-.22-5.3-.42-10.35-.64-15.65-2.43-.5-4.74-1.14-7.09-1.44-5.66-.7-11.07.18-16.08,3.04-1.52.87-2.45,1.94-2.23,3.9.21,1.8.03,3.64.09,5.46.22,6.29.47,12.59.71,18.88m-9.39,123.75c-.34-.64-.61-1.34-1.05-1.9-2.89-3.67-5.05-7.65-5.77-12.35-.17-1.08-.75-2.16-1.38-3.09-6.25-9.28-11.24-19.17-14.89-29.75-1.44-4.17-3.05-8.28-4.81-12.32-1.29-2.97-3.22-5.54-6.41-7.61.28,3.2.5,5.97.77,8.72,1.23,12.3,4.39,24.11,8.98,35.56.35.87.85,1.73,1.44,2.45,4.52,5.5,9.36,10.71,15.02,15.06,2.54,1.95,5.41,3.48,8.13,5.21l-.03.03Zm6.2-175.02c-1.32-.49-2.47-.95-3.64-1.34-6.94-2.27-13.71-2.56-20.21,1.53-1.49.94-2.13,1.96-1.98,3.72.41,4.69.71,9.38,1.06,14.07.11,1.47.2,2.94.32,4.62,8.11-3.36,16.03-4.2,24.44-.76v-21.84Zm115.53-157.28c.37.07.75.14,1.12.2,3.06-3.41,6.31-6.67,9.14-10.27,6.58-8.38,11.52-17.66,14.27-28.01,1.08-4.07,1.27-8.15-.39-12.14-.74-1.77-1.65-1.9-2.95-.49-4.17,4.54-7.88,9.41-11,14.74-5.95,10.15-9.5,21.12-11.11,32.73-.14,1.02.59,2.15.92,3.23m-234.7-.03c1.55-.93,1.95-2.12,1.6-3.73-.35-1.59-.45-3.24-.77-4.83-3.17-15.78-9.94-29.77-20.87-41.67-1.92-2.09-2.78-1.96-3.76.63-1.51,3.98-1.01,7.99.15,11.89,2.38,8.04,5.73,15.67,10.44,22.65,3.76,5.58,8.13,10.65,13.21,15.06m96.62,198.74c7.78,3.57,15.73,7.22,23.76,10.9-.46-9.37-.91-18.55-1.36-27.78-8.28-3.41-16.22-3.33-23.89,1.4.5,5.24.99,10.29,1.48,15.48m-109.13-253.62c14.91.57,28.68,3.49,41.88,9.46,3.28-4.07,8.88-5.37,11.69-10.67-3.67-1.8-6.89-3.76-10.36-4.99-8.44-3.01-17.19-3.62-26.1-2.71-4.72.48-9.26.98-12.46,5.21-1.04,1.37-2.75,2.23-4.65,3.72m134.29,234.06c3.93-2.74,8-4.02,12.42-3.96,4.28.06,8.55.33,13.02.52.52-6.54,1.07-13.38,1.63-20.31-9.5-2.71-18.39-1.86-27.07,2.78v20.97h0Zm84.36-224.61c13.22-5.97,26.98-8.86,41.53-9.45-2.61-2.28-4.99-4.18-7.15-6.31-1.08-1.07-2.08-1.79-3.66-1.9-3.53-.25-7.04-.93-10.56-1-9.29-.18-18.37,1.02-26.79,5.31-1.66.85-3.19,1.97-4.95,3.08,2.89,4.81,8.11,6.31,11.58,10.27m-79.36,373.39c.94-.42,1.28-.52,1.57-.71,6.64-4.2,12.32-9.47,17.33-15.49.78-.94,1.38-2.09,1.84-3.24,4.41-11.21,7.27-22.81,8.67-34.78.33-2.81.43-5.65.63-8.48-.19-.1-.37-.2-.56-.3-1.2,1.31-2.7,2.44-3.53,3.95-1.88,3.43-3.83,6.92-5.02,10.62-3.75,11.68-8.65,22.84-15.51,32.97-3.18,4.7-3.14,10.07-5.42,15.45m30.27,36.82c6.44-10.21,10.86-21.03,13.69-32.81-2.02-.6-3.81-1.47-5.67-1.62-4.55-.36-7.7.18-9.41,4.89-2.03,5.57-4.63,10.97-7.32,16.27-2.59,5.12-5.6,10.02-8.65,15.4,5.66-2.2,11.32-2.72,17.36-2.13m-91.9-32.72c-.02.35-.09.55-.04.73,2.67,10.9,6.98,21.11,13.05,30.57.77,1.2,1.71,1.35,2.91,1.26,4.56-.34,9,.31,13.33,1.76.51.17,1.05.28,1.89.5-2.42-3.99-4.88-7.54-6.81-11.35-3.58-7.11-6.93-14.34-10.2-21.6-.8-1.78-1.9-2.73-3.67-3.23-3.63-1.03-7.02-.41-10.44,1.36m24.83-176.87c0-.34.04-.8,0-1.26-.65-6.39-1.45-12.78-1.92-19.18-.21-2.87-1.59-4.29-4.02-5.52-5.36-2.71-10.67-3.35-16.45-.78.97,7.53,2.69,14.76,5.13,21.84.4,1.17,1.26,1.27,2.26,1.34,1.72.12,3.49.06,5.14.49,3.29.86,6.51,2.01,9.88,3.08m-55.76,91.67c-5.56-4.24-10.78-8.23-16.07-12.27-6.76,5.29-10.19,12.05-10.66,20.39-.08,1.41.59,2.04,1.77,2.58,3.23,1.46,6.42,3.03,9.63,4.54,1.52.71,3.05,1.38,4.95,2.24,1.19-7.2,3.98-13.16,10.38-17.48m177.51,17.46c5.2-2.41,9.88-4.6,14.57-6.75,1.2-.55,1.67-1.34,1.63-2.69-.18-5.65-1.98-10.71-5.4-15.18-1.5-1.96-3.12-3.82-5.41-4.98-2.68,2.06-5.26,4.04-7.85,6.02-2.6,2-5.2,4.01-7.98,6.15,6.4,4.3,9.11,10.3,10.44,17.43m-35.22-179.21c-.54.1-.9.13-1.22.24-6.08,2.09-11.47,5.25-15.81,10.1-1.29,1.44-1.93,2.92-2.08,4.85-.4,5.15-1.01,10.29-1.52,15.44-.26,2.58-.48,5.15-.72,7.73,4.4-4.24,9.05-7.42,14.76-8.21,2.22-10.17,4.38-20.04,6.59-30.15m-19.62-189.82c-.1.92-.17,1.85-.3,2.77-.88,6.45-1.59,12.94-2.71,19.35-1.02,5.81,2,13.68,7.1,17.12.34-.42.68-.87,1.04-1.3,1.55-1.85,2.51-1.89,3.76.04.72,1.11,1.39,2.35,1.66,3.63.43,2.04,1.49,2.98,3.9,2.85-1.24-15.98-4.04-31.37-14.46-44.45m-78.41-.04c-10.18,13.13-13.24,28.44-14.31,44.5,2.45.08,3.56-.89,3.86-2.94.11-.74.45-1.47.8-2.15,1.52-2.92,3.04-4.19,5.25-.69.14.22.4.37.97.88,1.54-2.14,3.21-4.11,4.49-6.3,1.81-3.12,3.03-6.54,2.24-10.19-1.66-7.59-2.91-15.23-3.3-23.12m39.11,46.72c.13,13.57-.56,26.44.7,40.14,1.3-1.13,2.25-1.71,2.85-2.55,1.12-1.55,2-3.27,3.02-4.89,4.28-6.81,8.91-13.42,12.19-20.82.52-1.17,1.13-2.31,1.89-3.83-8.04.02-14.45-2.85-20.65-8.05m-16.78,149.71c-.29-.66-.75-1.41-.96-2.22-.87-3.32-1.9-6.62-2.41-10-.45-2.94.66-4.15,3.54-4.95,3.04-.85,6.1-1.66,9.14-2.52.86-.24,1.68-.6,2.52-.9-.69-.62-1.3-.77-1.91-.79-2.88-.12-5.76-.16-8.63-.3-3.59-.18-3.59-.2-3.6-3.78,0-.17-.14-.34-.22-.52-3.65-1.05-9.66-.85-13.67.51.08,9.66.79,19.31,1.84,28.78,4.97-1.15,9.52-2.2,14.36-3.32m48.94,83.49c7.59-6.25,15.87-7.73,24.86-6.92v-16.95c-4.08.95-7.86,2.82-12.3,2.67-.07-2.24-1.69-2.45-3.36-2.64-4.22-.5-7.41,2.08-7.81,6.31-.14,1.53-.35,3.05-.46,4.57-.31,4.07-.59,8.14-.93,12.95m59.9,89.91c-.44-1.83-.79-3.71-1.36-5.52-1.28-4.01-3.4-7.48-6.8-10.09-1.35-1.04-2.48-1.11-3.79.13-1.88,1.78-3.96,3.34-5.84,5.12-2.91,2.75-5.72,5.61-8.67,8.51,4,3.66,6.73,7.71,7.53,12.94,6.35-3.72,12.43-7.29,18.93-11.1m-157.18-2c-4.91-4.48-9.54-8.78-14.25-12.98-2.27-2.02-2.76-1.99-5.07.07-4.53,4.03-6.54,9.28-7.18,14.97,6.33,3.72,12.47,7.34,18.8,11.06.81-5.23,3.49-9.24,7.71-13.12m102.94-166.99c.54-9.64,1.06-18.8,1.58-28.03-4.57-1.15-8.74-2.02-13.04-1.37-.33,2.92-.33,2.98-2.84,3.19-1.72.14-3.46.07-5.18.17-2.11.12-4.21.31-6.32.48.24.65.45.85.7.92,3.59,1.03,7.19,2.06,10.8,3.06,3.05.85,3.76,1.75,3.71,4.87-.05,3.72-1.19,7.17-2.62,10.54-.39.92-.75,1.85-1.18,2.93,2.64.47,4.91.79,7.14,1.29,2.23.5,4.43,1.19,7.25,1.96m14.29,21.39c-4.7,1.25-8.39,3.04-11.37,6.27-2.93,3.17-4.58,6.74-4.48,11.09,0,.38-.14.75-.19,1.13-.58,5.1-1.16,10.21-1.8,15.84,3.66-2.48,7.26-2.75,10.97-1.71,3.73-10.69,5.26-21.44,6.87-32.62m-54.53-136.58c.21-.11.43-.22.64-.33v-37.67c-5.66,4.02-11.27,7.4-18.24,7.32,4.36,11.35,11.7,20.58,17.6,30.68m79.37.8c.39-7.6,2.08-14.79,5.8-21.55-7.14,2.94-13.65,7.25-21.55,7.52-.65,1.2-1.24,2.31-1.84,3.42-.17-.07-.33-.14-.5-.21.19-.99.39-1.98.61-3.12-1.05-.22-2.06-.43-3.23-.68-.65,3.39-1.28,6.63-1.88,9.78,8.86,4.4,17.18,5.69,22.58,4.83m-137.78-14.07c-8.08-.17-14.49-4.72-21.64-7.37,3.88,6.74,5.35,14,5.9,21.38,5.67,1.2,15.66-1.06,22.51-4.94-.64-3.14-1.3-6.36-1.97-9.64-1.31.29-2.23.5-3.2.72.27,1.1.53,2.13.79,3.17-.2.08-.41.17-.61.25-.56-1.13-1.13-2.27-1.77-3.57m20.87,356.45c1.23-6,1.7-11.77,7.66-14.58-5.21-7.5-10.34-14.88-15.54-22.34-3.12,1.39-5.1,3.57-6.36,6.51-.54,1.27-.37,2.22.33,3.45,2.97,5.15,5.85,10.35,8.59,15.62,1.85,3.55,3.42,7.25,5.32,11.35m88.47-37.17c-5.45,7.8-10.59,15.17-15.78,22.6,5.73,2.93,6.43,8.53,7.45,14.58.62-1.26,1-2.08,1.42-2.9,3.88-7.58,7.69-15.21,11.7-22.73,1.79-3.35,1.98-4.82-.48-7.69-1.16-1.35-2.66-2.41-4.31-3.86m-42.09,91.64c2.25-1.83,4.37-3.53,6.47-5.26,1.68-1.38,2.86-2.97,2.9-5.34.04-2.09.56-4.17.76-6.27.62-6.57.03-13.04-2.24-19.27-1.52-4.17-3.76-7.91-7.15-10.9-1.13.48-2.09.88-3.05,1.31-.25.11-.46.31-.85.58.32.88.62,1.78.96,2.66,3.93,10.38,5.42,21.14,4.47,32.17-.29,3.36-1.44,6.64-2.27,10.32M67.82,93.39c-.16-.24-.33-.49-.5-.73-4.66,1.71-9.43,3.18-13.93,5.23-3.28,1.5-6.38,3.55-9.25,5.75-3.49,2.67-4.92,6.67-6.18,10.97,1.48.24,2.67.43,3.6.58.85-1.06,1.53-1.9,2.21-2.74.19.11.37.23.56.34-.14,1.3-.42,2.61-.38,3.9.05,1.37.41,2.73.74,4.74,1-1.29,1.6-2,2.13-2.75,3.17-4.43,6.88-8.34,11.74-10.86,2.09-1.08,3.17-2.61,4.01-4.61,1.45-3.42,2.42-7.1,5.25-9.81m506.48,21.2c-1.64-5.23-3.82-9.69-8.32-12.7-6.46-4.32-13.51-7.11-20.94-8.79,1.77,3.84,3.43,7.68,5.31,11.41.56,1.11,1.6,2.16,2.68,2.8,4.6,2.74,8.56,6.15,11.67,10.53.74,1.04,1.57,2.03,2.39,3.08,2.03-2.68.73-5.62.92-8.33l.65-.1c.64.88,1.27,1.76,1.94,2.68,1.14-.18,2.26-.36,3.72-.59m-369.71,246.12c-3.22-3.02-6.15-5.77-9.41-8.83-3.67,9.01-9.19,16.49-16.49,23.25,4.97,2.76,9.66,5.36,14.71,8.16.48-9.49,4.3-16.74,11.19-22.58m212.42-8.84c-3.35,3.16-6.37,6-9.47,8.93,7.12,5.82,10.75,13.14,11.21,22.53,5.1-2.85,9.73-5.43,14.69-8.2-7.17-6.84-12.82-14.14-16.42-23.26m-73.2,142.68c-2.28,0-4.08-.17-5.84.03-6.28.71-12.2,2.1-16.64,7.31-3.2,3.75-7.25,6.58-11.88,8.45-.45.18-.85.5-1.68,1,3.75,1.71,7.14,2.41,10.75,1.97,4.4-.53,8.29-2.35,11.89-4.83,5.27-3.62,9.52-8.21,13.39-13.93m-102-102.04c-3.39,3.22-5.49,6.66-6.57,10.76-.42,1.6,0,2.54,1.2,3.71,3.97,3.87,7.72,7.95,11.55,11.96.51.53.98,1.08,1.18,1.31,2.45-2.68,4.79-5.24,7.34-8.03-4.52-6.46-8.99-13.33-14.7-19.71m128.28-.26c-5.08,7.02-9.89,13.68-14.44,19.96,2.67,2.94,5.01,5.52,7.13,7.84,4.61-4.83,9.37-9.81,14.39-15.07-.55-4.61-2.83-8.75-7.08-12.73m-119.6-259.32c2.43-3.35,4.64-6.33,6.76-9.37.28-.39.34-1.13.19-1.59-1.69-5.04-3.45-10.06-5.29-15.38-5.47,3.6-11.71,4.66-18.11,5.51,7.2,5.55,12.49,12.36,16.45,20.84m127.71-20.9c-1.98-.29-3.95-.57-5.93-.88-4.43-.71-8.57-2.26-12.29-4.59-1.79,5.21-3.52,10.18-5.18,15.17-.18.55-.24,1.39.05,1.81,2.18,3.12,4.46,6.16,6.82,9.37,3.79-8.18,8.92-14.99,16.07-20.19.2-.14.26-.48.38-.73l.08.04Zm-147.35,56.27c.28-.02.56-.04.84-.06.19-1.24.83-2.64.46-3.67-.67-1.85-1.92-3.51-2.99-5.21-7.52-11.87-17.39-21.41-29.05-29.15-1.66-1.1-3.57-1.81-5.38-2.68-1.51-.73-2.68-.06-3.43,1.18-.85,1.39.43,2.09,1.3,2.78,4.21,3.33,8.44,6.65,12.71,9.92,9.1,6.98,17.81,14.35,23.88,24.3.53.88,1.12,1.72,1.68,2.58m190.55-38.76c-2.1-2.63-2.25-2.77-4.66-1.77-1.76.73-3.49,1.61-5.07,2.67-12.93,8.72-23.63,19.54-31.22,33.28-1.13,2.05-1.08,2.39.9,4.41,6.15-10.62,14.99-18.66,24.57-25.99,4.42-3.39,8.81-6.8,13.19-10.26.86-.68,1.55-1.58,2.29-2.34m-54.37,296.64c-3.34-1.51-4.21-1.32-5.86,1.3-5.26,8.31-9.3,17.23-13.11,26.26-.27.64-.45,1.32-.85,2.52,4.5-1.55,8.38-.73,12.43.83.39-1.96.84-3.72,1.08-5.5.56-3.99,1.02-8,1.52-12,.61-4.81,2.28-9.27,4.78-13.41m-5.68-127.76c-6.41-1.33-12.31.25-17.89,3.34-5.48,3.03-5.47,3.1-5.42,9.3.02,3.19.19,6.38.31,10.18,2.15-1.23,4.14-1.84,5.36-3.15,5.92-6.38,11.65-12.94,17.64-19.67m-96.33,157.36c-4.08-9.83-8.33-19.25-13.81-28.06-1.82-2.92-2.36-3.08-5.94-1.64.29.59.52,1.19.86,1.74,1.96,3.25,3.14,6.78,3.68,10.51.33,2.27.41,4.58.74,6.86.56,3.92,1.23,7.83,1.84,11.64,2.39-.53,4.32-1.18,6.29-1.34,1.96-.16,3.97.16,6.35.29m92.82-66.24c-3.25-.2-6.25.15-9.21,1.05-1.1.33-1.54.79-1.52,2,.14,8.29-1.06,16.44-2.94,24.5-1.02,4.36-2.22,8.68-3.5,13.63.93-1.19,1.53-1.89,2.05-2.64,2.35-3.4,4.63-6.84,7.01-10.21,1.45-2.06,2.46-4.14,2.79-6.75.93-7.32,2.74-14.46,5.32-21.57m-86.72,41.1c-.21-1.29-.28-2.63-.65-3.87-2.05-6.8-3.68-13.68-4.46-20.74-.54-4.84-.93-9.7-1.4-14.73-3.06-1.76-6.64-1.77-10.33-2.02.12.51.15.79.25,1.05,2.7,7.31,4.45,14.83,5.35,22.57.11.98.6,2,1.16,2.84,3.35,5.02,6.78,9.99,10.18,14.99l-.08-.07Zm29.56,80.55c-3.68-3.54-7.22-6.75-10.51-10.19-1.72-1.79-3.6-3.21-5.89-3.97-2.81-.93-5.68-1.78-8.59-2.3-1.98-.35-4.08-.07-6.62-.07,5.81,7.43,12.02,13.48,20.55,16.82,3.79,1.48,7.31.61,11.06-.29m-40.76-203.35c3.24,3.84,6.32,7.49,9.41,11.13.24.28.56.55.89.71,3.95,1.89,7.91,3.76,12.19,5.8-.73-5.6-1.4-10.77-2.06-15.84-6.57-3.14-13.18-4.39-20.44-1.8m104.83-12.35c4.51-3.7,8.45-7.18,12.66-10.3,2.49-1.85,4.48-3.51,3.08-6.95-.24-.59-.08-1.33-.15-2-.23-2.21-.49-4.42-.72-6.56-4.96,2.97-9.68,5.8-14.32,8.58-.18,5.58-.36,11.12-.56,17.22m-133.4-13.21c5.12,4.15,10.28,8.33,15.63,12.67v-16.59c-5-3-9.69-5.82-14.51-8.71-.38,4.22-.74,8.29-1.12,12.63m-11.85-199.25c8.06,3.54,15.13,8.91,24.56,10.06-3.43-7.5-7.04-14.24-12.65-19.24-4.07,3.14-7.84,6.04-11.92,9.19m148.56,10.03c9.42-1.08,16.49-6.46,24.56-10.03-4.19-3.24-7.95-6.15-11.89-9.2-5.55,5.16-9.21,11.8-12.66,19.23m-16.14,10.49c-3.44,7.34-8.06,13.48-14.55,18.27,3.18,3.05,6.12,5.87,9.21,8.84,4.44-8.27,7.56-16.65,9.68-25.54-1.49-.54-2.73-.98-4.34-1.56m-86.54,26.65c3.14-2.92,6.15-5.73,9.26-8.62-6.67-4.65-10.92-10.97-14.47-17.94-1.15.36-2.14.67-3.12,1-.26.09-.49.26-1.05.57,2.03,8.82,5.25,17.21,9.38,24.99M37.04,91.26c5.04,3.48,5.44,3.91,8.14,8.83,3.9-1.94,7.8-3.88,11.83-5.88-1.25-3.78-3.05-7.24-5.6-10.25-1.87-2.19-3.5-2.28-5.62-.47-2.9,2.47-5.7,5.06-8.75,7.77m537.92.27c-.26-.42-.36-.72-.56-.89-2.72-2.42-5.42-4.88-8.21-7.21-2.13-1.78-3.28-1.78-5.19.28-2.75,2.99-4.51,6.58-5.89,10.46,4.11,2.07,8.04,4.04,12.02,6.04,1.36-3.95,4.16-6.7,7.83-8.67m-504.1-2.48c.33.04,1.27.25,2.21.26,2.86.05,5.71.02,8.58.02,1.84-3.8,1.4-9.47-.95-12.84-.78-1.11-1.63-1.78-3.1-1.56-2.65.4-5.32.67-7.97,1.03-1.39.18-2.77.43-3.79.59,1.68,4.17,3.27,8.12,5.03,12.5m475.53-12.66c-4.1-.48-8.42-1.06-12.76-1.4-.68-.05-1.68.89-2.14,1.62-2.27,3.57-2.79,7.47-1.61,11.53.17.58.96,1.39,1.47,1.39,3.5-.03,7-.25,9.92-.38,1.81-4.5,3.39-8.44,5.13-12.77m-294.41,58.96c3.74,3.18,7.47,5.81,10.5,9.08,2.97,3.2,5.24,7.06,8,10.89.18-2.37.2-4.49.54-6.55.27-1.65-.15-2.87-1.03-4.26-3.3-5.28-6.44-10.67-9.61-16.04-.52-.87-.9-1.83-1.57-3.21-2.5,3.7-4.74,7-6.83,10.1m153.03,209.7c-5.16,6.53-10.22,12.92-15.25,19.32-.28.36-.55.85-.57,1.28-.06,2.13-.03,4.27-.03,6.98,5.01-3.91,9.54-7.42,14.05-10.97.43-.34.84-.84,1.01-1.35,1.68-4.97,2.29-10,.79-15.26m-197.57.36c-.19.06-.39.13-.59.2-.2,1.61-.61,3.22-.58,4.82.11,5.54.49,11.01,6.3,14.04.76.39,1.38,1.03,2.07,1.55,2.64,1.99,5.29,3.97,8.2,6.16,0-1.72-.13-2.98.03-4.21.28-2.18-.55-3.8-1.94-5.43-3.16-3.74-6.16-7.62-9.19-11.47-1.47-1.86-2.88-3.78-4.31-5.67m57.48-280.68c4.76,5.24,10.4,9.87,16.02,14.44,1.91-1.56,1.36-3,.65-4.59-2.97-6.64-5.85-13.31-8.76-19.97-.24-.55-.49-1.09-.62-1.38-2.36,3.72-4.69,7.4-7.29,11.5m75.21-11.21c-3.24,7.15-6.66,14.73-10.12,22.29-.68,1.48.19,2.31.99,3.26,3.84-2.33,13.96-11.51,16.13-14.5-2.46-3.88-4.84-7.64-7-11.05m203.59,8.27c-4.3-1.35-8.98-2.83-13.86-4.36-1.18,6.19,1.49,10.67,4.68,15.21,3.44.43,7.08.89,10.5,1.32-.45-4.13-.86-7.89-1.33-12.18m-461.47-4.39c-5.04,1.61-9.74,3.12-14.5,4.64,1.13,4.16-.1,7.92-1.06,12.02,3.93-.51,7.52-.98,10.84-1.41,3.28-4.52,5.97-9.02,4.72-15.25m-16.76,34.09c-2.03-1.21-4.84-1.04-6.36-4,3.43.55,6.4,1.02,9.58,1.53-.39-3.82-1.69-6.86-3.51-9.69-1.1-1.71-2.74-2.4-4.73-1.94-2.42.56-4.82,1.19-7.2,1.89-1.04.31-2,.88-3.12,1.38,4.36,3.69,6.68,8.25,8.6,13.02,2.37-.78,4.54-1.48,6.74-2.2m496.52-10.86c-3.84-1.84-7.53-2.79-11.31-3.28-.83-.11-2.03.26-2.6.85-2.83,2.88-4.11,6.46-4.56,10.78,3.29-.5,6.19-.94,9.63-1.46-1.85,2.83-4.43,2.93-6.62,3.96,2.31.74,4.54,1.46,6.91,2.22,1.87-4.92,4.28-9.33,8.56-13.06m22.81,24.11c.62-2.14.05-3.42-1.39-4.58-1.1-.89-1.93-2.12-2.87-3.2-1.31-1.49-2.63-2.99-3.8-4.32-4.6,1.68-6.91,4.66-8.14,8.1,2.43,3.39,4.66,6.49,7,9.74,2.02-3.48,5.57-4.7,9.19-5.75m-541.27-3.95c-1.07-3.06-3.05-5.65-6.13-7.36-1.18-.66-2.04-.61-2.99.47-2.22,2.5-4.57,4.87-6.82,7.34-1.36,1.48-.89,3.3,1.12,3.91,3.26.98,6.06,2.58,7.86,5.21,2.29-3.15,4.52-6.2,6.97-9.56m280.49,22.82c-5.47-2.51-5.8-2.82-13.97-13.3-.96.41-1.96.84-3.13,1.34,2.69,7.61,5.27,14.93,7.85,22.23,3.22-3.57,6.21-6.88,9.25-10.26m29.39,1.74c-.61,1.12-.99,1.86-1.4,2.57-3.08,5.29-6.06,10.64-9.29,15.83-1.96,3.15-2.13,3.24.21,6.79,3.92-7.02,10.07-11.57,17.02-15.51-2.19-3.24-4.25-6.29-6.54-9.68M38.9,74.18c-3.51,2.65-6.69,5.04-9.95,7.49.97-.06,1.82-.1,2.68-.15.06.18.12.36.19.54-1.35.78-2.69,1.56-3.49,2.02v13.1c3.47-3.5,6.63-6.67,9.73-9.89.36-.37.49-1.02.62-1.56.28-1.21.39-2.47.75-3.65.79-2.59.41-5.06-.53-7.9m543.43,7.21c-2.91-2.37-5.82-4.75-8.79-7.17-1.54,3.3-1.21,10.4.48,13.04.2.32.52.56.79.82,1.45,1.4,2.94,2.75,4.34,4.19,1.49,1.54,2.9,3.17,4.73,5.18v-13.36c-.99-.62-2.21-1.38-3.98-2.49,1.36-.15,1.92-.22,2.48-.28l-.05.06Zm-493.19-9.38c1.89-6.59,3.72-12.98,5.61-19.56-3.53,1.45-6.95,2.85-10.44,4.29.84,5.48-.12,10.46-3.33,15.27h8.17Zm428.37-19.55c1.89,6.73,3.66,13.05,5.48,19.55h8.04c-2.78-4.74-4.27-9.7-3.11-15.27-3.45-1.42-6.79-2.79-10.41-4.28M57.67,110.96c-4.5,3.2-8.23,6.82-10.69,11.56-.3.57-.37,1.6-.05,2.1,1.47,2.28,3.12,4.45,4.53,6.42,2.96-2.06,5.68-3.95,8.59-5.97-3.05-4.12-5.95-8.51-2.37-14.11m500.32,31.55c.41-2.87.81-5.6,1.16-8.33.04-.33-.1-.78-.32-1.04-2.09-2.61-4.35-5.02-7.53-6.29-3.25,3.88-4.45,8.79-3.27,13.26,1.66.59,3.34,1.32,5.08,1.76,1.54.38,3.17.44,4.88.65m-131.49,247.22c5.38-2.17,10.99-4.43,16.93-6.83-3-2.26-5.65-4.24-8.16-6.13-4.68,2.67-9.11,5.19-13.4,7.64,1.53,1.76,2.89,3.33,4.62,5.32m-257.74-6.83c6.09,2.45,11.65,4.69,16.88,6.8,1.72-1.95,3.2-3.61,4.72-5.32-4.44-2.51-8.91-5.03-13.46-7.6-2.58,1.94-5.15,3.87-8.14,6.12M552.38,125.29c2.73,1.87,5.45,3.73,8.22,5.62,1.29-1.74,2.52-3.55,3.92-5.23,1.16-1.38,1.19-2.56.22-4.1-2.38-3.76-5.28-7.03-8.76-9.78-.44-.34-.95-.59-1.42-.89,1.37,2.57,1.92,5.18,1.13,7.69-.76,2.4-2.23,4.58-3.3,6.68m-491.37,1.39c-3.13,1.47-5.33,3.59-7.3,5.97-.34.41-.67,1.05-.61,1.53.38,2.73.89,5.44,1.43,8.58,2.89-.76,5.53-1.5,8.2-2.14,1.51-.36,1.95-1.33,1.99-2.73.13-4.11-1.32-7.67-3.72-11.21m352.39,206.8c-2.27,3-4.51,5.92-6.68,8.89-.22.3-.17.94-.02,1.34,1.44,3.97,1.65,8.02.88,12.16-.09.52-.01,1.07-.01,2.3,3.2-3.09,5.97-5.77,8.2-7.92-.84-5.96-1.58-11.2-2.36-16.77m-208.5,24.96c-.7-5.36-1.14-10,.47-14.58.19-.56-.2-1.49-.59-2.06-1.42-2.05-2.94-4.02-4.46-6.01-.58-.76-1.24-1.47-1.86-2.2-.1,5.13-.57,9.86-1.98,14.5-.22.71-.13,1.88.33,2.36,2.47,2.61,5.1,5.06,8.09,7.98m83.33-234.64c2.79,3.01,5.6,6.04,8.48,9.15,2.28-6.69,4.57-13.36,6.82-20.05.5-1.49.07-2.44-1.69-2.35-5.61,8.25-6.77,9.33-13.61,13.25m258.31-61.12c-1.22,4.26.11,7.63,1.77,10.92.23.46.75.96,1.23,1.07,2.83.66,5.68,1.21,8.27,1.75.47-3.32.9-6.39,1.38-9.76-3.92-1.23-8.17-2.56-12.65-3.97m-481,.03c-4.35,1.37-8.67,2.73-12.51,3.94.41,3.6.77,6.74,1.12,9.87,2.52-.54,5.05-1.01,7.53-1.66.85-.22,1.93-.75,2.27-1.45,1.61-3.28,2.83-6.69,1.59-10.7m165.03,342.72c-5.27-4.02-10.94-7.04-16.67-9.95-.47-.24-1.43-.15-1.82.19-1.28,1.12-2.4,2.43-3.65,3.73,6.36,3.43,12.49,6.73,18.64,10.05,1.04-1.2,2.15-2.47,3.5-4.02m-20.29-11.72c-5.24-2.48-10.41-4.97-15.63-7.34-.64-.29-1.72-.15-2.37.2-1.68.91-2.97,2.27-3.8,4.23,4.4,1.9,8.6,3.71,12.79,5.54q4.97,2.17,8.71-1.93c.06-.07.08-.17.31-.69m191.5.13c1.66,1.58,3.09,2.95,4.67,4.46,5.63-2.45,11.45-4.97,17.56-7.62-1.13-1.29-1.9-2.25-2.76-3.14-1.42-1.48-2.94-1.85-4.86-.69-1.79,1.08-3.78,1.83-5.68,2.74-2.91,1.38-5.81,2.77-8.93,4.26m1.99,5.55c-.99-1.04-1.9-1.88-2.67-2.83-1.09-1.34-2.18-1.56-3.73-.64-3.37,2.01-6.87,3.82-10.26,5.82-1.86,1.1-3.6,2.43-5.47,3.71,1.26,1.44,2.31,2.64,3.35,3.84,6.17-3.25,12.26-6.47,18.77-9.9m167.47-315.15c-.44-3.47-1.11-6.86-.05-10.3.17-.54-.45-1.62-1.01-2.06-2.49-1.95-5.27-3.37-8.37-4.32-1.97,2.59-2.34,5.37-1.65,8.3.18.74.77,1.56,1.4,2,3.15,2.16,6.37,4.21,9.69,6.38M253,401.42c-.91-4.11-2.37-7.89-4.73-11.32-2.8-4.08-6.07-7.47-8.84-8.9,1.15,4.18,2.56,8,5.04,11.35,1.89,2.54,3.9,4.99,5.77,7.54,2.26,3.07,4.43,6.21,6.64,9.32.21-.08.42-.16.63-.24-1.66-6.46-3.29-12.93-4.99-19.39-.31-1.16-1.18-1.53-2.51-1.05,2.21,4.06,3.56,8.16,2.98,12.69M40.97,84.07c3.6-2.26,6.84-4.27,10.04-6.33.37-.24.78-.7.84-1.1.46-3.13.96-6.31-1.9-9.3-2.69,1.53-5.41,3.08-8.14,4.61-1.01.57-1.01,1.27-.85,2.38.33,2.25.32,4.54.35,6.82.01.94-.21,1.88-.34,2.92m321.28,304.28c-1.64.16-2.38.41-2.71,1.74-1.16,4.74-2.49,9.44-3.69,14.17-.4,1.58-.59,3.21-.98,5.4,4.37-5.85,8.49-11.01,12.19-16.46,2.07-3.05,3.45-6.56,5.07-9.9.23-.47.03-1.15.03-2.05-6.52,5.64-11.53,11.78-13.01,20.25-.59-4.63.79-8.74,3.09-13.15m229.88-290.09c2.09,2.91,2.74,3.12,5.31,1.56,1.94-1.18,3.79-2.51,5.39-3.59-.8-4.38-1.53-8.39-2.26-12.46-1.4.16-2.65.23-3.87.46-.51.09-1.32.45-1.37.78-.47,3.15-1.52,6.33-.17,9.51,1.11-.16,2.06-.29,3.01-.43.08.23.16.47.24.7-2.04,1.12-4.07,2.24-6.28,3.46m-574.74-3.77c.02-3.52.45-6.84-.88-10.17-1.74-.16-3.4-.31-5.16-.47-.27,2.09-.42,3.88-.75,5.64-.34,1.87-.92,3.7-1.24,5.58-.09.51.26,1.33.68,1.65,1.53,1.15,3.12,2.21,4.77,3.18,2.68,1.57,3.38,1.31,5.15-1.68-1.78-1.61-4.71-1.48-6.33-4.11,1.37.14,2.37.25,3.74.39m242.22,7.51c-4.49-10.69-4.88-21.54-4.28-32.77-1.27.34-2.13.57-2.98.79-.43,11.26.5,22.16,3.14,33.24,1.34-.41,2.48-.76,4.12-1.26m-21.13-24.45c2.08,4.31,4.22,8.58,6.2,12.92,1.4,3.07,1.65,3.25,4.9,1.96-.35-4.74-.71-9.48-1.06-14.27-3.53-.21-6.84-.41-10.05-.61m-145.2,13.78c-3.28-5.78-4.44-11.4-3.91-17.58-2.65.27-4.99.51-7.61.77,3.03,4.84,3.71,9.89,2.27,15.26,3.02.51,5.81.98,9.25,1.55m280.39-13.78c-3.11.19-6.41.39-9.97.61-.4,4.9-.8,9.7-1.21,14.71,1.7-.09,3.38,1.27,4.42-.94,2.26-4.81,4.52-9.62,6.76-14.38m-16.98-8.31c.98,11.41.07,22.19-4.03,32.82,1.52.42,2.73.76,4.12,1.15,2.49-11.16,3.52-22.04,2.93-33.18-.98-.26-1.78-.47-3.02-.79M12.01,121.25c-1.59,3.33-3.12,6.55-4.52,9.49,2.06,1.97,3.93,3.77,5.91,5.67,2.1-3.27,4.21-6.55,6.38-9.91-2.11-2.53-4.59-4.3-7.77-5.25m588.09-.02c-3.15,1.17-5.83,2.63-7.6,5.4,2.19,3.41,4.27,6.67,6.28,9.81,2.13-2.04,4.07-3.9,5.96-5.71-1.54-3.15-3.08-6.29-4.65-9.51m-77.21-47.52c.65,6.33-.68,11.92-3.71,17.55,3.27-.55,6.09-1.03,8.96-1.51-1.32-5.49-.78-10.47,2.24-15.2-2.5-.28-4.76-.53-7.49-.83m70.4,11.11h-7.22c-1.99,4.83-1.65,9.44.52,14.02,2.26-1.33,4.31-2.54,6.7-3.96v-10.06ZM27.3,118.35c-1.98-1.95-3.74-3.8-5.66-5.46-.51-.44-1.74-.64-2.31-.34-2.89,1.56-5.28,3.67-6.29,6.67,2.8,1.83,5.41,3.53,8.02,5.23,1.84-1.8,3.8-3.71,6.25-6.11m220.4,304.54c-2.55-4.33-7.61-9.9-12.8-14.18-2.15-1.78-2.62-1.77-4.49.16-.51.53-.91,1.17-1.42,1.84,2.66,2.08,5.27,4.01,7.74,6.08,2.49,2.08,4.86,4.32,7.28,6.48l-.41.58c1.28-.3,2.56-.6,4.09-.96M599.12,119.14c-1.21-2.65-3.17-4.65-5.57-6.29-1.1-.75-2.07-.7-3.16.02-2.27,1.52-3.9,3.54-5.1,5.7,2.11,2.14,4.03,4.08,5.84,5.92,2.56-1.71,5.14-3.43,7.99-5.34m-231.09,304.68c5.14-4.64,10-9.02,14.9-13.45-.34-.43-.72-.98-1.17-1.47-1.75-1.87-2.25-1.92-4.29-.27-5,4.06-9.37,8.71-13.16,14.19,1.52.41,2.87.77,3.72,1M25.71,98.74c1.91-4.65,2.27-9.22.45-13.79h-7.4c.19,3.57.36,6.9.53,10.02,2.21,1.3,4.25,2.49,6.43,3.77m557.87,18.91c2.24-2.42,4.26-4.62,6.32-6.85-.81-.68-1.66-1.3-2.39-2.04-.73-.74-1.34-1.6-2.1-2.53-1.09.34-2.17.68-3.26,1.01-2.41.73-4.17,2.29-5.43,4.41-.96,1.62-.37,3.13,1.39,3.84,1.86.74,3.72,1.47,5.47,2.16m-554.99,0c1.58-.63,3.25-1.34,4.94-1.97,2.45-.91,2.98-2.48,1.51-4.63-2.05-3.01-5.06-4.2-7.06-4.45-2.42,1.92-4.06,3.23-5.52,4.38,1.93,2.1,3.92,4.27,6.12,6.66m345.09,267.91c3.5-3.02,6.57-6.09,10.06-8.56,3.44-2.43,3.64-5.6,3.51-9.45-3.53,3.23-6.76,6.31-10.13,9.22-1.59,1.37-2.87,2.64-2.59,5.01.13,1.07-.47,2.22-.85,3.77m-149.01-18.2c.25,2.27.37,4.07.67,5.84.1.61.52,1.27.99,1.69,3.91,3.5,7.87,6.95,11.85,10.44-.27-2.03-.46-4.02-.83-5.97-.11-.58-.61-1.17-1.08-1.59-3.68-3.34-7.4-6.65-11.6-10.42m95.79-163.85c.9.83,1.72,1.78,2.72,2.47,2.47,1.7,3.19,3.97,2.44,6.76-.71,2.65-1.52,5.28-2.37,8.19,1.48-.47,3.24.36,4.08-1.45,1.79-3.85,3.06-7.87,2.92-12.17-.02-.65-.67-1.66-1.25-1.85-2.69-.91-5.47-1.59-8.21-2.36l-.33.41Zm-25.31,16.31c-.68-2.76-1.34-5.35-1.97-7.94-.56-2.33.3-4.11,2.12-5.56,1.1-.87,2.13-1.84,3.19-2.76-2.89.24-5.5,1.05-8.15,1.68-1.42.34-1.79,1.09-1.76,2.45.09,4.3,1.36,8.24,3.2,12.13h3.38m21.51-15.37c-.16.11-.32.23-.48.35,2.75,5.49,2.45,11.22,1.36,16.78,3.14.6,4.28-1.19,4.91-3.64.19-.74.53-1.44.69-2.18.73-3.28.61-6.24-2.71-8.26-1.37-.83-2.51-2.02-3.75-3.05m-15.37,16.69c-1.06-5.63-1.06-11.21,1.22-16.65-1.82,1.23-3.32,2.56-4.91,3.77-1.9,1.44-2.57,3.28-2.12,5.57.22,1.13.52,2.24.74,3.37.52,2.69,1.97,4.22,5.06,3.95m281.61-153.45c-2.79,1.4-3.93,5.17-7.9,5.98,3.29,2.26,6.28,4.31,9.77,6.7.12-2.05.45-3.39.21-4.63-.53-2.67-1.35-5.27-2.09-8.05M27.61,80.26c3.25-2.25,6.24-4.33,9.62-6.68-4.17-.69-5.09-4.71-8.21-5.85-.34,2.08-.29,4.31-1.12,6.14-.89,1.98-.99,3.75-.29,6.39m558.04-4.95c1.4-1.27,2.11-1.93,3.31-3.02,0,3.33-2.85,5.82-.81,8.32.83-2.29,1.52-4.66,2.52-6.89,1.56-3.46.89-5.87-2.43-7.7-1.86-1.03-3.35-.42-3.39,1.73-.04,2.34.47,4.69.8,7.55m20.91,57.27c-2.87.9-5.06,2.65-5.89,4.65-.19.46-.25,1.15-.04,1.57.86,1.7,4.49,3.01,6.28,2.36,1.88-.68,2.85-2.41,2.08-4.31-.62-1.54-1.64-2.91-2.44-4.27M24.16,80.52c2.09-2.57-1.69-5.03-.58-7.81.99.77,1.75,1.37,3.04,2.38.22-2.86.52-5.12.51-7.38,0-1.12-.44-2.33-2.1-2.1-2.9.4-5.19,4.27-4.1,7.01,1.04,2.6,2.11,5.19,3.22,7.9m-18.51,52.04c-.73,1.18-1.61,2.4-2.28,3.73-.69,1.37-.7,2.82.44,3.99,1.19,1.22,2.77,1.48,4.23.8,1.41-.66,2.62-1.73,3.86-2.57-1.62-3.67-2.77-4.77-6.25-5.95M543.16,57.52c3.64,4.92,9.23,5.06,14.32,6.71-1.22-1.37-.26-3.92-2.59-4.43-3.89-.85-7.82-1.53-11.73-2.28m-474.06,0c-3.08.6-6.16,1.19-9.24,1.79q-4.03.78-5.02,5.22c5.04-1.82,10.55-2.32,14.27-7.01m-15.57,3.67c-4.42.8-7.79,3.38-10.94,6.28-.4.36-.25,1.32-.4,2.28,2.28-1.08,4.13-2.1,6.08-2.84,2.71-1.02,4.22-3.07,5.26-5.72m516.73,8.53c-.51-1.17-.64-2.17-1.21-2.69-3.08-2.79-6.41-5.2-10.86-6.24,2.15,4.57,3.4,5.49,12.07,8.93M97.74,47.4c-.13-.25-.26-.51-.38-.76-.96.34-1.95.62-2.88,1.04-2.18.98-4.3,2.15-6.52,3.02-1.68.66-2.33,1.71-2.08,3.95,4.14-2.43,9.26-2.74,11.86-7.25m416.81-1.13c.78,3.52,3.05,4.41,5.25,5.38,2.12.93,4.23,1.87,6.35,2.81.16-.2.31-.4.47-.6-.34-.82-.45-2.08-1.06-2.4-3.45-1.78-7.01-3.34-11-5.19m-431.09,6.52c-3.13,1.06-6.23,2.19-9.39,3.15-1.64.5-2.56,1.37-2.84,3.6,4.33-2.33,9.77-1.5,12.23-6.75m445.4.08c-.14.14-.27.29-.41.43.75.89,1.33,2.2,2.28,2.59,3.28,1.34,6.69,2.35,10.04,3.49.1-.18.2-.36.31-.55-.58-.81-.99-2.06-1.77-2.36-3.42-1.34-6.96-2.42-10.45-3.59m-84.83,20.42c-2.64-3.44-9.02-6.89-12.96-6.8,4.54,2.45,7.44,6.76,12.96,6.8m-263.61-6.46c-.15-.18-.31-.36-.46-.54-4.4,1.35-8.62,3-11.69,6.77,1.32.07,2.73.19,3.7-.41,2.91-1.79,5.65-3.86,8.45-5.82m423.88,28.17c3.4-3.1,2.44-9.01-1.68-10.65.57,3.59,1.11,7.01,1.68,10.65m-47.51,49.83c-2.49-.69-4.91-1.36-7.45-2.07,2.18,4.51,4.91,5.28,7.45,2.07m-493.5-2.28c-2.91.87-5.37,1.6-7.97,2.38,2.58,2.75,5.36,1.94,7.97-2.38m245.42,316.01c1.75.24,3.32-.46,4.01-1.89.91-1.88,1.27-4.02,1.86-6.06-.11-.05-.22-.09-.33-.14-1.87,2.72-3.74,5.43-5.61,8.15l.07-.06Zm-10.89-8.38c.53,2.4,1.9,4.23,3.55,5.86l.59-.42c-1.4-1.79-2.8-3.58-4.2-5.37l.06-.06Zm-13.98-370.9c-1.28,1.84-.98,2.39,1.91,3.61-.66-1.26-1.27-2.4-1.91-3.61m42.97,3.86c.72-1.08,2.91-1.43,2.19-3.24-.31-.14-.62-.27-.93-.41-.4,1.24-.8,2.48-1.2,3.72l-.06-.07Zm-77.87,195.61c-.08,2.15,1.02,1.77,2.02,1.47.17-.05.26-.39.48-.72-.84-.25-1.55-.47-2.5-.75M37.91,72.27c.14.13.28.26.42.4.66-.7,1.33-1.39,1.99-2.09-.16-.15-.33-.3-.49-.45-.64.72-1.29,1.43-1.93,2.15m535.78-.15c-.4-.62-.81-1.24-1.21-1.85-.2.2-.39.39-.59.59.62.4,1.24.81,1.86,1.21l-.06.06Zm-283.61,121.77c0,.22,0,.44.01.67.56-.03,1.12-.07,1.68-.1v-.38c-.56-.06-1.13-.12-1.69-.19m292.3-112.57c.16.14.32.28.48.43.06-.11.11-.21.17-.32l-.69-.05.05-.06Zm-284.55,368.85c-.06-.13-.12-.26-.16-.36.03.11.07.27.11.42l.06-.06Zm3.51,9.72c.16.16.31.31.47.47.06-.07.12-.13.18-.2-.23-.08-.45-.16-.68-.24l.03-.03Zm76.86-347.89l-.1-.17.02.13.08.04Zm-51.38-28.87l-.1-.03.16.1-.06-.07Zm-53.2,241.18c-.06-.05-.12-.1-.18-.15.04.07.08.14.11.21l.07-.05Zm-2.41,106.38s.08-.02.12-.03c-.07-.01-.14-.03-.21-.04l.08.07ZM573.69,72.12c.14.07.27.13.41.2-.12-.09-.23-.17-.35-.26l-.06.06Zm-264.97,386.45s-.05.04-.07.06l.07-.06Zm31.38-135.92s-.07-.1-.1-.14c0,.03.02.06.02.1l.08.05Z"/>
    </g>
  </g>
</svg>